Coordinates
version=1
nRows=32
nColumns=12
inDegrees=yes

Units are S.I. units (second, meters, Newtons, ...)
Angles are in degrees

endheader
time	SC_y	SC_z	SC_x	AC_y	AC_z	AC_x	GH_y	GH_z	GH_yy	EL_x	PS_y
       0.0               -32.9         -3.407          67.06          65.81         -13.88         -17.52         -159.6          30.25          122.6           38.2          121.3
  0.001512               -32.9         -3.406          67.06          65.81         -13.88         -17.52         -159.6          30.25          122.6          38.21          121.3
  0.003024               -32.9         -3.405          67.05           65.8         -13.88         -17.51         -159.6          30.25          122.6          38.22          121.3
  0.004536              -32.91         -3.404          67.05           65.8         -13.87         -17.51         -159.5          30.24          122.5          38.22          121.3
  0.006049              -32.91         -3.403          67.05          65.79         -13.87          -17.5         -159.5          30.24          122.5          38.23          121.3
  0.007561              -32.92         -3.402          67.04          65.79         -13.87         -17.49         -159.5          30.23          122.5          38.24          121.3
  0.009073              -32.92         -3.401          67.04          65.78         -13.86         -17.49         -159.4          30.23          122.5          38.25          121.3
   0.01059              -32.93           -3.4          67.03          65.77         -13.86         -17.48         -159.4          30.22          122.4          38.26          121.3
    0.0121              -32.93         -3.398          67.03          65.76         -13.86         -17.47         -159.4          30.21          122.4          38.27          121.3
   0.01361              -32.94         -3.397          67.02          65.76         -13.85         -17.47         -159.3          30.21          122.4          38.28          121.3
   0.01512              -32.95         -3.395          67.02          65.75         -13.85         -17.46         -159.3           30.2          122.4          38.29          121.2
   0.01663              -32.95         -3.394          67.01          65.74         -13.84         -17.45         -159.2          30.19          122.3           38.3          121.2
   0.01815              -32.96         -3.392          67.01          65.73         -13.84         -17.44         -159.2          30.18          122.3          38.31          121.2
   0.01966              -32.97          -3.39           67.0          65.72         -13.84         -17.43         -159.1          30.17          122.2          38.33          121.2
   0.02117              -32.98         -3.388          66.99           65.7         -13.83         -17.41         -159.1          30.16          122.2          38.34          121.2
   0.02268              -32.99         -3.386          66.98          65.69         -13.82          -17.4         -159.0          30.15          122.2          38.36          121.2
   0.02419               -33.0         -3.383          66.97          65.68         -13.82         -17.39         -158.9          30.14          122.1          38.38          121.2
   0.02571              -33.01          -3.38          66.96          65.66         -13.81         -17.37         -158.9          30.13          122.0           38.4          121.2
   0.02722              -33.02         -3.377          66.95          65.64          -13.8         -17.36         -158.8          30.11          122.0          38.42          121.2
   0.02873              -33.03         -3.374          66.94          65.63         -13.79         -17.34         -158.7           30.1          121.9          38.44          121.2
   0.03024              -33.05          -3.37          66.93          65.61         -13.78         -17.32         -158.6          30.08          121.9          38.47          121.2
   0.03176              -33.06         -3.367          66.91          65.58         -13.77          -17.3         -158.5          30.06          121.8           38.5          121.2
   0.03327              -33.08         -3.362           66.9          65.56         -13.76         -17.27         -158.4          30.04          121.7          38.53          121.2
   0.03478               -33.1         -3.357          66.88          65.53         -13.75         -17.25         -158.2          30.02          121.6          38.56          121.2
   0.03629              -33.12         -3.352          66.86           65.5         -13.74         -17.22         -158.1          29.99          121.5           38.6          121.2
    0.0378              -33.15         -3.346          66.84          65.47         -13.72         -17.18         -157.9          29.96          121.4          38.65          121.1
   0.03932              -33.17         -3.339          66.81          65.43          -13.7         -17.15         -157.7          29.93          121.2          38.69          121.1
   0.04083               -33.2         -3.332          66.79          65.39         -13.68         -17.11         -157.5          29.89          121.1          38.75          121.1
   0.04234              -33.24         -3.323          66.76          65.34         -13.66         -17.06         -157.3          29.85          120.9          38.81          121.1
   0.04385              -33.28         -3.314          66.72          65.28         -13.64         -17.01         -157.0          29.81          120.7          38.88          121.1
   0.04536              -33.32         -3.303          66.68          65.22         -13.61         -16.94         -156.7          29.75          120.5          38.96          121.0
   0.04688              -33.37          -3.29          66.63          65.15         -13.58         -16.88         -156.3          29.69          120.2          39.05          121.0
